<svg width="103" height="23" viewBox="0 0 103 23" fill="none" xmlns="http://www.w3.org/2000/svg">
<path fill-rule="evenodd" clip-rule="evenodd" d="M22.9989 22.9984L17.2262 22.9842L16.5068 21.8963C14.981 22.6316 13.3177 22.9984 11.4994 22.9984C8.32456 22.9984 5.60979 21.8774 3.36303 19.6321C1.11785 17.3852 0 14.6766 0 11.5016C0 8.32181 1.11785 5.61323 3.36303 3.37268C5.61137 1.12581 8.32456 0.00158123 11.4994 0.00158123C14.6727 0.00158123 17.3812 1.12423 19.6264 3.37268C21.8684 5.61323 22.9989 8.32339 22.9989 11.5016C22.9989 14.3477 22.0913 16.8239 20.2825 18.9269L22.9989 22.9984ZM11.4994 4.93015C9.68117 4.93015 8.12851 5.56895 6.84939 6.8513C5.56395 8.13206 4.92518 9.68321 4.92518 11.5016C4.92518 13.3199 5.56395 14.8664 6.84939 16.1471C8.12851 17.431 9.68117 18.0698 11.4994 18.0698C12.2853 18.0698 13.0268 17.9497 13.7146 17.7062L10.6741 13.127H16.4246L17.3606 14.5232C17.835 13.6141 18.0658 12.6068 18.0658 11.5C18.0658 9.68163 17.427 8.13048 16.1479 6.84972C14.8625 5.56895 13.3161 4.93015 11.4994 4.93015ZM76.8531 16.0175C76.8531 17.9449 76.1733 19.5894 74.8103 20.9524C73.4474 22.3153 71.7983 22.9984 69.8709 22.9984H55.4986V18.0698H69.8694C70.4417 18.0698 70.9256 17.8675 71.3272 17.4706C71.7193 17.0737 71.9248 16.5867 71.9248 16.0175C71.9248 15.4514 71.7193 14.9644 71.3272 14.5628C70.9256 14.1643 70.4417 13.9635 69.8694 13.9635H55.4986V9.0365H69.8694C70.4417 9.0365 70.9256 8.83727 71.3272 8.43723C71.7193 8.03719 71.9248 7.55177 71.9248 6.98254C71.9248 6.41331 71.7193 5.92788 71.3272 5.52784C70.9256 5.1278 70.4417 4.92857 69.8694 4.92857H55.4986V0H69.8694C71.7967 0 73.4443 0.683075 74.8088 2.04448C76.1717 3.40905 76.8516 5.05507 76.8516 6.98096C76.8516 8.7092 76.3029 10.2192 75.1977 11.4984C76.3029 12.7808 76.8531 14.2876 76.8531 16.0175ZM103 4.93015H88.6277C88.0632 4.93015 87.5731 5.12938 87.1762 5.52942C86.7746 5.92947 86.5722 6.41331 86.5722 6.98412C86.5722 7.55335 86.7746 8.03877 87.1762 8.43882C87.5731 8.83886 88.0616 9.03809 88.6277 9.03809H96.0194C97.9468 9.03809 99.5911 9.71958 100.956 11.0841C102.319 12.4471 103 14.0916 103 16.019C103 17.9465 102.32 19.591 100.956 20.9539C99.5911 22.3169 97.9468 23 96.0194 23H81.6455V18.0714H96.0194C96.5902 18.0714 97.0756 17.869 97.4772 17.4722C97.8709 17.0753 98.0732 16.5883 98.0732 16.019C98.0732 15.453 97.8709 14.966 97.4772 14.5643C97.074 14.1659 96.5886 13.9651 96.0194 13.9651H88.6277C86.6987 13.9651 85.0544 13.2836 83.693 11.9206C82.3301 10.5576 81.6471 8.91001 81.6471 6.98412C81.6471 5.05823 82.3301 3.41063 83.693 2.04764C85.0559 0.684656 86.7003 0.00316245 88.6277 0.00316245H103V4.93015ZM50.7379 12.3206C50.7379 15.268 49.609 17.7837 47.3638 19.8677C45.1234 21.9564 42.4102 22.9984 39.2369 22.9984C36.062 22.9984 33.3504 21.9564 31.1005 19.8677C28.8553 17.7837 27.7375 15.268 27.7375 12.3206V0H32.6642V12.3191C32.6642 13.905 33.3046 15.2632 34.5868 16.3859C35.8675 17.5085 37.4186 18.0683 39.2369 18.0683C41.0536 18.0683 42.6015 17.5085 43.8885 16.3859C45.1629 15.2632 45.8048 13.905 45.8048 12.3191V0H50.7363V6.16032V12.3206H50.7379Z" fill="white"/>
</svg>
